PathFileType	4	(X/Y/Z)	14_2_89_p1_0-263_filt_butterworth.trc
DataRate	CameraRate	NumFrames	NumMarkers	Units	OrigDataRate	OrigDataStartFrame	OrigNumFrames
59.0	59.0	6	27	m	59.0	164	263
Frame#	Time	RHip			RKnee			RAnkle			RBigToe			RSmallToe			RHeel			LHip			LKnee			LAnkle			LBigToe			LSmallToe			LHeel			Neck			Head			Nose			RShoulder			RElbow			RWrist			RThumb			RIndex			RPinky			LShoulder			LElbow			LWrist			LThumb			LIndex			LPinky			
		X1	Y1	Z1	X2	Y2	Z2	X3	Y3	Z3	X4	Y4	Z4	X5	Y5	Z5	X6	Y6	Z6	X7	Y7	Z7	X8	Y8	Z8	X9	Y9	Z9	X10	Y10	Z10	X11	Y11	Z11	X12	Y12	Z12	X13	Y13	Z13	X14	Y14	Z14	X15	Y15	Z15	X16	Y16	Z16	X17	Y17	Z17	X18	Y18	Z18	X19	Y19	Z19	X20	Y20	Z20	X21	Y21	Z21	X22	Y22	Z22	X23	Y23	Z23	X24	Y24	Z24	X25	Y25	Z25	X26	Y26	Z26	X27	Y27	Z27	
164	2.7796610169491527	0.3195965768646153	0.6543247936339314	0.31243832200313676	0.2997694975283078	0.7645857414189013	0.6919841112608587	0.28361354858729587	0.9543973322458237	1.1350927694410633	0.2668874167069825	0.6980887261557192	1.1529820563843796	0.32843058752546317	0.7420418369183215	1.1675990603214021	0.2743843352641443	1.0020910602235065	1.1807505305235764	0.08670296459659238	0.6643765721271763	0.29841680049461805	0.09138359691585614	0.7669130796987028	0.6899586367516514	0.09701031091699175	0.9001071017265319	1.1307921911889889	0.11548166111853006	0.6922604043703328	1.1420424584952633	0.06599776285772647	0.7279976765439241	1.15409634911987	0.11716018740325995	0.9509636875322757	1.170841046020102	0.2162600467912751	0.4770281633821041	-0.31352615458794525	0.2113097700986909	0.39049803807132005	-0.5623140343110853	0.20308127812099114	0.33255581553000363	-0.41846466056998644	0.38725138072926474	0.4852260702152703	-0.2114258972478549	0.4772161415852212	0.5098572765725512	0.033336784115507605	0.5246951723891432	0.35391637652179364	0.24722521267015515	0.46127648620155903	0.26078879620897155	0.311290766346503	0.4716004464349878	0.26611495769391863	0.33635385284576674	0.4672187710734422	0.35837157362245015	0.3597358620466845	0.04036139912693456	0.5091592458071925	-0.22375718562164526	-0.045236795156052466	0.6117534389860747	0.04797276080894882	-0.13937406478894565	0.6327727051023582	0.2859214348931626	-0.1416699273560106	0.6065710119349034	0.38764480854798555	-0.18681694094204684	0.5717392564909588	0.39112679331376293	-0.1678378977614459	0.6199218886698378	0.39639598731690634
165	2.796610169491525	0.31947486744432796	0.6539243076992483	0.3125368628667163	0.2999923524224675	0.7651681741790404	0.6930708806359335	0.2836036147175473	0.9544082328041246	1.135173506511149	0.26809076951298394	0.703828702279399	1.154981472049495	0.32851636582142696	0.7423161735281275	1.1676819171204764	0.274411014117536	1.0020962568085068	1.1801644521547845	0.08683778958677389	0.6649193618816126	0.29957842704468335	0.0918484163239061	0.7686421818373601	0.6907770724279783	0.09701026086909653	0.9001339655389049	1.1308196670508976	0.11543909853758805	0.692066713630003	1.1419394901490878	0.06569113782388994	0.7265245893437111	1.1536041251367188	0.11768291179001339	0.9514674379446096	1.1711381254921827	0.21725446972829582	0.4800330568944226	-0.3140777795698185	0.2112575359613898	0.390185004035853	-0.5630994082012363	0.20309104785280913	0.332433906865244	-0.41719706658054667	0.3872847257641499	0.48519751312870624	-0.2114279622760783	0.4773171175505357	0.5095516579997705	0.032354708750265866	0.5248877834370163	0.35290839003808794	0.24932599159710178	0.4613789423888599	0.2619515358323429	0.31399831736297823	0.4710136828360937	0.26765198356581527	0.33945402942422553	0.46658575518632806	0.3598309289858593	0.36337283943948623	0.04040234460871338	0.509331462663825	-0.2233756493800181	-0.04524185938392314	0.6118453621140186	0.04829640022799269	-0.1401078409523558	0.6311241241681445	0.2857751265480627	-0.14531352779480505	0.5945557591180359	0.38735085611889486	-0.18629358161849116	0.5676427889373753	0.38996137577241446	-0.17175197555968696	0.6113270765796988	0.3960174552298365
166	2.8135593220338984	0.31939536678488706	0.6537403499672685	0.3125198483100099	0.30031798642288465	0.7658910589400839	0.6949814072291466	0.2836116208609808	0.954360796391315	1.135251932783414	0.26904958443358407	0.7079026991986623	1.156425531902695	0.32844461950165255	0.7423595547325493	1.1677144664814725	0.274461199037439	1.0020471110621767	1.1800393207453168	0.08704169629587145	0.6656149222883609	0.30111730297578043	0.09306055811619575	0.7731155134523651	0.6928463037094621	0.09702073472123245	0.9001358427974444	1.1307959032644528	0.11530098582329822	0.6918387249073208	1.1419201843846076	0.065597135054891	0.7257299733093182	1.1530960130911432	0.11913513841581422	0.9527875965480009	1.1715878046783832	0.21773623630137334	0.4816345548675814	-0.3144259872910058	0.21122064084929518	0.3900608600095557	-0.5634026432862295	0.20313407534144395	0.33229432459925506	-0.4160129556514882	0.3875470563472405	0.4837468768484077	-0.211312429191018	0.47759908404823925	0.5078474359180998	0.03230029463342266	0.5244877622713817	0.34972537212887855	0.2510179212873583	0.460616221412599	0.2646851542265467	0.3189505500824879	0.469568872074751	0.2683160114196195	0.3428248530286899	0.46767978024248263	0.36363677503476816	0.36915107479050946	0.04039602114110185	0.5093630551044468	-0.22333881407045736	-0.045570171928338205	0.6103992869122992	0.04821643362092568	-0.14194148824715136	0.6272992098942651	0.28550328158578436	-0.14920263658856142	0.5790419018178157	0.3861105256149428	-0.18536604593048578	0.5650454548069098	0.38966097834635577	-0.1755137201126739	0.6009178350895421	0.39513504336540417
167	2.830508474576271	0.3193182585779873	0.6539960635541827	0.31252857434457015	0.30058808740794896	0.7662954088291861	0.6971138132647234	0.28363767048318966	0.9542962501640848	1.1351925412480894	0.26926744824378185	0.7106335801220274	1.1577123364772106	0.3283594263352489	0.7422294008499085	1.167710633519669	0.2745361811774113	1.0019635518884296	1.1799691697693615	0.08725365119707117	0.6661605756216076	0.30227799714841763	0.09467318706375778	0.7790223285565296	0.6955578082907528	0.09704509153680463	0.9001034856190193	1.1307107535958734	0.11512898508288172	0.6921407818909002	1.1423536637607135	0.06571263498719122	0.7254703385117507	1.1534349924304652	0.12099925250372463	0.9543341145206575	1.1720131284097741	0.21791961780445063	0.482357511073097	-0.3139862607564302	0.21120729813662345	0.39004528812448813	-0.5634152856987983	0.2032081787760511	0.33214163567141153	-0.41541864114311955	0.38825047103158333	0.48004912745932937	-0.21101484254671338	0.4781923337596095	0.5039381708365845	0.03309974085435064	0.5235691957481385	0.3454293358668378	0.2522884499151729	0.45845389004060516	0.26897125585794207	0.32612137383925194	0.467339464036045	0.2688253813466181	0.34690566865079603	0.46995041635411866	0.36889868058176745	0.37576679842295474	0.04032493425982523	0.509189914623391	-0.22337732186214146	-0.04638704957877085	0.6068034890238192	0.0481329046169826	-0.14431366863005063	0.6225112886734582	0.28516112220212836	-0.15236104362662922	0.5608196438071631	0.3842126763220849	-0.18445666462072333	0.5632440399606452	0.39018068101656367	-0.1780432772509407	0.5918879148437188	0.3940725247687652
168	2.847457627118644	0.31921281529425133	0.6546399668758474	0.31259687128578584	0.300747703861772	0.7662966274922111	0.6989846269178323	0.2837423479132788	0.9541287097300565	1.134673534263541	0.26891607838054393	0.7135003599541301	1.1595906180197444	0.328300991036935	0.7421042604923513	1.167688797541341	0.2746150262745134	1.0018583541893982	1.1798149243642009	0.08744900867835921	0.6665374828229533	0.30275795753270834	0.09590172323846245	0.7834615507659745	0.6975840091805519	0.09707375076656077	0.9000584419656663	1.1306272187588262	0.11516379436702134	0.6942197211528714	1.143918569978978	0.06585030408772968	0.7254718812339904	1.1549647547703517	0.12238817738944105	0.955338792076404	1.1722071753724213	0.2179339796888708	0.48247555887179744	-0.31281116901382566	0.21120520688196048	0.3900552552861586	-0.5633757917308428	0.20327880234350573	0.33199654771493187	-0.4152984031481744	0.3892183884267073	0.47522582959846743	-0.21062728936438838	0.4789850912679065	0.49903664012657917	0.034159160390021856	0.5224620736182763	0.3422768651099985	0.25324722065558397	0.4555428690444792	0.27330099646142025	0.3347174181263502	0.4654218854791009	0.26955159060763934	0.35257335165009035	0.4725215259526647	0.3733102220988124	0.3813489078929061	0.040304143148115874	0.5092090330796482	-0.2234095188034558	-0.04744761670057605	0.6022681083086705	0.048455231752515676	-0.1460762648041413	0.6185996535167799	0.2849663509332961	-0.15451236479407343	0.5439437804073641	0.38230351077043256	-0.18424659280772335	0.561797219219754	0.3910977666577258	-0.1791785427798378	0.5848061324489742	0.3935636809931218
169	2.864406779661017	0.31921711433518757	0.6549397616326214	0.3127269496869191	0.30088693971553737	0.766276234635504	0.700531124343728	0.2839756909091272	0.9537644851960789	1.1334456865375955	0.26849448662104153	0.716377945698958	1.1619115166125948	0.32826161824842287	0.7420687017033225	1.1676689391982489	0.27466597147856325	1.0017463492102994	1.179629115543311	0.08764177925492461	0.6669913488821917	0.30297211845635685	0.09638939768654635	0.7851432441735623	0.6983415144752767	0.09709932980360951	0.900040841156367	1.1306349926312451	0.11570829283994867	0.6988128153641298	1.146675709872598	0.06594321347447824	0.7254900850392035	1.1568088400016983	0.12291608489711092	0.9555712066808236	1.172151525816574	0.2175524380755594	0.48128851324778515	-0.31153037342625134	0.21121048533291634	0.3901102097969631	-0.5632949928106193	0.20331855253082137	0.33190794728858847	-0.415348020220775	0.3898737911499297	0.47141990342473444	-0.2103160886526084	0.4796571766924522	0.49569070538180676	0.03493951435135298	0.5207071027700103	0.34131808521426565	0.2538242472276262	0.4529136773781522	0.2757990893349912	0.3432758319325857	0.46455429198490694	0.27079973123667156	0.3595945119735135	0.47443776232793977	0.375638316399268	0.38477298340337346	0.04061895033362763	0.5104165804619312	-0.22350320268298282	-0.04820779508788493	0.5990750617104309	0.04941679201351203	-0.14683731652237178	0.6144610105902347	0.2850681421134559	-0.15562539474146253	0.5296129092598199	0.38045170352711466	-0.18502141898989885	0.5593958417950662	0.3916780983936389	-0.17959056273102322	0.5777265333149819	0.3938946883285732
